<mxfile host="app.diagrams.net" modified="2024-02-23T07:06:27.476Z" agent="Mozilla/5.0 (Macintosh; Intel Mac OS X 10_15_7) AppleWebKit/537.36 (KHTML, like Gecko) Chrome/121.0.0.0 Safari/537.36" version="23.1.6" etag="hZQyt0BK8G_BYkBX1EFj" type="github">
  <diagram name="Page-1" id="IvHwwqapN2C8Q2M2Fam4">
    <mxGraphModel>
      <root>
        <mxCell id="0" />
        <mxCell id="1" parent="0" />
      </root>
    </mxGraphModel>
  </diagram>
</mxfile>
